HIERARCHY
ROOT Hips
{
	OFFSET 0.000000 0.000000 0.000000
	CHANNELS 6 Xposition Yposition Zposition Xrotation Yrotation Zrotation
	JOINT Chest
	{
		OFFSET 0.000000 0.009282 11.569106
		CHANNELS 6 Xposition Yposition Zposition Xrotation Yrotation Zrotation
		JOINT Chest2
		{
			OFFSET 0.000000 -0.016863 9.269641
			CHANNELS 6 Xposition Yposition Zposition Xrotation Yrotation Zrotation
			JOINT Chest3
			{
				OFFSET 0.000000 0.000000 8.374491
				CHANNELS 6 Xposition Yposition Zposition Xrotation Yrotation Zrotation
				JOINT Chest4
				{
					OFFSET 0.000000 0.000000 8.374493
					CHANNELS 6 Xposition Yposition Zposition Xrotation Yrotation Zrotation
					JOINT Neck
					{
						OFFSET 0.000000 -0.000001 12.152554
						CHANNELS 6 Xposition Yposition Zposition Xrotation Yrotation Zrotation
						JOINT Head
						{
							OFFSET 0.000000 -0.040100 7.802319
							CHANNELS 6 Xposition Yposition Zposition Xrotation Yrotation Zrotation
							End Site
							{
								OFFSET 0.000000 -0.020946 14.853096
							}
						}
					}
					JOINT RightCollar
					{
						OFFSET -2.894404 0.000000 6.791374
						CHANNELS 6 Xposition Yposition Zposition Xrotation Yrotation Zrotation
						JOINT RightShoulder
						{
							OFFSET -13.574684 0.000000 0.000000
							CHANNELS 6 Xposition Yposition Zposition Xrotation Yrotation Zrotation
							JOINT RightElbow
							{
								OFFSET -23.923903 0.000000 0.000000
								CHANNELS 6 Xposition Yposition Zposition Xrotation Yrotation Zrotation
								JOINT RightWrist
								{
									OFFSET -19.846718 -0.012765 0.000000
									CHANNELS 6 Xposition Yposition Zposition Xrotation Yrotation Zrotation
									End Site
									{
										OFFSET -14.973145 0.000000 0.000000
									}
								}
							}
						}
					}
					JOINT LeftCollar
					{
						OFFSET 2.894404 0.000000 6.791374
						CHANNELS 6 Xposition Yposition Zposition Xrotation Yrotation Zrotation
						JOINT LeftShoulder
						{
							OFFSET 13.574684 0.000000 0.000000
							CHANNELS 6 Xposition Yposition Zposition Xrotation Yrotation Zrotation
							JOINT LeftElbow
							{
								OFFSET 23.923903 0.000000 0.000000
								CHANNELS 6 Xposition Yposition Zposition Xrotation Yrotation Zrotation
								JOINT LeftWrist
								{
									OFFSET 19.846718 -0.012765 0.000000
									CHANNELS 6 Xposition Yposition Zposition Xrotation Yrotation Zrotation
									End Site
									{
										OFFSET 14.973145 0.000000 0.000000
									}
								}
							}
						}
					}
				}
			}
		}
	}
	JOINT RightHip
	{
		OFFSET -9.469263 -0.004642 0.045487
		CHANNELS 6 Xposition Yposition Zposition Xrotation Yrotation Zrotation
		JOINT RightKnee
		{
			OFFSET 0.000000 -0.002666 -40.478676
			CHANNELS 6 Xposition Yposition Zposition Xrotation Yrotation Zrotation
			JOINT RightAnkle
			{
				OFFSET 0.000000 -0.049110 -35.224068
				CHANNELS 6 Xposition Yposition Zposition Xrotation Yrotation Zrotation
				JOINT RightToe
				{
					OFFSET 0.000000 -12.539530 -6.151390
					CHANNELS 6 Xposition Yposition Zposition Xrotation Yrotation Zrotation
					End Site
					{
						OFFSET 0.000000 -5.044995 -1.291870
					}
				}
			}
		}
	}
	JOINT LeftHip
	{
		OFFSET 9.469263 -0.004642 0.045487
		CHANNELS 6 Xposition Yposition Zposition Xrotation Yrotation Zrotation
		JOINT LeftKnee
		{
			OFFSET 0.000000 -0.002666 -40.478676
			CHANNELS 6 Xposition Yposition Zposition Xrotation Yrotation Zrotation
			JOINT LeftAnkle
			{
				OFFSET 0.000000 -0.049110 -35.224068
				CHANNELS 6 Xposition Yposition Zposition Xrotation Yrotation Zrotation
				JOINT LeftToe
				{
					OFFSET 0.000000 -12.539530 -6.151390
					CHANNELS 6 Xposition Yposition Zposition Xrotation Yrotation Zrotation
					End Site
					{
						OFFSET 0.000000 -5.044995 -1.291870
					}
				}
			}
		}
	}
}
MOTION
Frames: 4
Frame Time: 0.016667
-12.595410 9.900321 80.528603 4.287265 0.137468 -138.230092 0.000000 0.009280 11.569115 4.087372 0.595871 1.494872 0.000000 -0.016863 9.269641 1.782633 0.251850 0.591117 -0.000000 -0.000000 8.374487 1.782633 0.251849 0.591115 -0.000002 -0.000000 8.374491 1.337219 0.187165 0.444079 -0.000001 -0.000001 12.152566 14.791458 3.600271 6.414740 -0.000000 -0.040098 7.802339 -8.797343 4.121063 13.026413 -2.894404 0.000001 6.791370 -8.467759 -10.676246 -0.413492 -13.574683 -0.000000 0.000003 12.342513 -41.755972 -8.846889 -23.923899 -0.000004 0.000000 71.275619 14.855791 63.501771 -19.846701 -0.012767 0.000002 -59.333061 35.679091 86.867179 2.894402 0.000001 6.791372 -7.627537 6.942472 0.943229 13.574682 -0.000001 -0.000005 6.096102 39.280862 6.870452 23.923899 -0.000004 0.000000 74.045644 9.703000 -64.568626 19.846697 -0.012769 -0.000000 -22.901636 -28.733820 -84.798889 -9.469264 -0.004644 0.045497 13.499690 -12.894075 2.037929 -0.000303 -0.002684 -40.478703 -0.376947 -2.107341 6.514850 -0.000559 -0.049181 -35.224297 -6.582128 6.356181 12.147542 0.000005 -12.539530 -6.151382 -0.043887 0.028747 -0.111351 9.469263 -0.004644 0.045495 -4.854862 11.891400 -4.573290 -0.000739 -0.002780 -40.478901 -5.781222 2.783614 16.044012 -0.000083 -0.049232 -35.223316 16.845075 -13.513721 1.843736 -0.000001 -12.539545 -6.151613 -5.123879 -6.473136 0.009715 
-12.566032 9.896698 80.526367 4.314070 0.177173 -138.219806 0.000001 0.009282 11.569116 4.096357 0.657133 1.533764 -0.000000 -0.016862 9.269631 1.783584 0.275235 0.601744 -0.000001 0.000000 8.374483 1.783584 0.275233 0.601754 -0.000000 -0.000003 8.374491 1.337958 0.204671 0.452126 0.000001 -0.000002 12.152559 15.023114 3.605399 6.434700 0.000001 -0.040098 7.802326 -8.367776 4.145351 13.057132 -2.894403 -0.000001 6.791369 -8.454876 -10.684746 -0.422806 -13.574677 0.000001 -0.000000 12.337416 -41.782046 -8.777653 -23.923899 -0.000003 -0.000000 71.333922 14.785678 63.455886 -19.846733 -0.012763 0.000006 -59.349897 35.692578 86.864058 2.894405 -0.000001 6.791371 -7.650611 6.929504 0.936929 13.574682 -0.000002 0.000005 6.099868 39.234738 6.830489 23.923904 0.000002 -0.000004 74.032448 9.694727 -64.627045 19.846729 -0.012771 0.000005 -22.917462 -28.725327 -84.827562 -9.469263 -0.004641 0.045496 13.532481 -12.918975 2.003540 -0.000299 -0.002683 -40.478710 -0.370875 -2.068727 6.435804 -0.000564 -0.049184 -35.224304 -6.658071 6.348105 12.253666 0.000007 -12.539531 -6.151388 -0.016379 0.015238 -0.122329 9.469264 -0.004643 0.045494 -4.821050 11.883914 -4.542492 -0.000738 -0.002779 -40.478901 -5.778603 2.787477 16.020487 -0.000081 -0.049223 -35.223316 16.846523 -13.504058 1.805165 -0.000002 -12.539542 -6.151621 -5.119807 -6.472016 0.026590 
-12.537994 9.893115 80.523994 4.378940 0.218065 -138.205135 -0.000000 0.009282 11.569105 4.130843 0.697079 1.573203 -0.000001 -0.016862 9.269637 1.785888 0.301182 0.612037 0.000001 0.000002 8.374489 1.785888 0.301182 0.612046 -0.000000 -0.000001 8.374495 1.339716 0.224101 0.459914 -0.000002 -0.000000 12.152555 15.294868 3.614968 6.449978 0.000002 -0.040106 7.802324 -7.864559 4.183405 13.079595 -2.894407 0.000000 6.791360 -8.425356 -10.690938 -0.430001 -13.574684 -0.000001 -0.000004 12.329957 -41.824657 -8.679825 -23.923897 -0.000005 -0.000011 71.373359 14.691976 63.397106 -19.846729 -0.012767 0.000004 -59.354931 35.693647 86.877131 2.894401 0.000001 6.791367 -7.694492 6.912342 0.944474 13.574682 0.000002 0.000005 6.104961 39.198220 6.812574 23.923903 -0.000002 -0.000000 74.014648 9.685964 -64.689876 19.846710 -0.012774 -0.000003 -22.920595 -28.709566 -84.835321 -9.469263 -0.004642 0.045491 13.589999 -13.012223 1.974588 -0.000294 -0.002683 -40.478687 -0.346732 -1.999701 6.358359 -0.000560 -0.049186 -35.224300 -6.718264 6.389281 12.192315 0.000004 -12.539531 -6.151379 -0.041163 -0.022039 -0.086318 9.469263 -0.004643 0.045490 -4.755191 11.851606 -4.515693 -0.000738 -0.002778 -40.478889 -5.788497 2.788953 16.000522 -0.000081 -0.049228 -35.223316 16.851140 -13.471729 1.726844 -0.000005 -12.539543 -6.151618 -5.109987 -6.497839 0.093638 
-12.506274 9.886074 80.520905 4.423095 0.252289 -138.182363 0.000000 0.009281 11.569106 4.140181 0.746975 1.612118 0.000000 -0.016864 9.269649 1.784469 0.326813 0.621037 -0.000001 0.000000 8.374506 1.784469 0.326812 0.621039 -0.000002 -0.000002 8.374506 1.338681 0.243299 0.466739 -0.000001 -0.000004 12.152553 15.616278 3.626888 6.463388 0.000001 -0.040103 7.802308 -7.269676 4.231309 13.097715 -2.894405 -0.000000 6.791369 -8.450202 -10.711794 -0.441724 -13.574680 0.000001 0.000008 12.393679 -41.865368 -8.592337 -23.923901 -0.000001 -0.000000 71.404772 14.612927 63.328544 -19.846714 -0.012769 0.000002 -59.391002 35.693305 86.899131 2.894404 -0.000001 6.791366 -7.742422 6.895156 0.961720 13.574680 0.000000 -0.000005 6.092611 39.164493 6.824440 23.923910 -0.000005 -0.000002 74.013774 9.683837 -64.755808 19.846725 -0.012765 0.000001 -22.926223 -28.685681 -84.835089 -9.469262 -0.004643 0.045486 13.619030 -13.053523 1.953119 -0.000291 -0.002682 -40.478706 -0.320039 -1.959301 6.271417 -0.000565 -0.049185 -35.224308 -6.818110 6.373664 12.244402 0.000005 -12.539534 -6.151391 -0.023046 -0.025903 -0.094000 9.469264 -0.004643 0.045485 -4.707737 11.825473 -4.516269 -0.000736 -0.002777 -40.478901 -5.798438 2.791453 15.993202 -0.000074 -0.049225 -35.223309 16.855601 -13.452936 1.684346 -0.000004 -12.539538 -6.151624 -5.105245 -6.504988 0.130650 
